<svg viewBox="0 0 625 1209" version="1.1" xmlns="http://www.w3.org/2000/svg" xmlns:xlink="http://www.w3.org/1999/xlink" xml:space="preserve" xmlns:serif="http://www.serif.com/" style="fill-rule:evenodd;clip-rule:evenodd;stroke-linecap:round;stroke-linejoin:round;stroke-miterlimit:1.5;">
<g id="Empty-Shape" serif:id="Empty Shape"><rect x="0" y="0" width="625" height="166.667" style="fill:#060000;"/>
<g id="Dots"><g id="Dot"><circle id="Dot1" serif:id="Dot" cx="354.167" cy="854.167" r="10.417"/></g><g id="Dot2" serif:id="Dot"><circle id="Dot3" serif:id="Dot" cx="437.5" cy="770.833" r="10.417"/></g><g id="Dot4" serif:id="Dot"><circle id="Dot5" serif:id="Dot" cx="187.5" cy="604.167" r="10.417"/></g><g id="Dot6" serif:id="Dot"><circle id="Dot7" serif:id="Dot" cx="270.833" cy="520.833" r="10.417"/></g><g id="Dot8" serif:id="Dot"><circle id="Dot9" serif:id="Dot" cx="354.167" cy="437.5" r="10.417"/></g><g id="Dot10" serif:id="Dot"><circle id="Dot11" serif:id="Dot" cx="104.167" cy="354.167" r="10.417"/></g><g id="Dot12" serif:id="Dot"><circle id="Dot13" serif:id="Dot" cx="104.167" cy="437.5" r="10.417"/></g><g id="Dot14" serif:id="Dot"><circle id="Dot15" serif:id="Dot" cx="104.167" cy="520.833" r="10.417"/></g><g id="Dot16" serif:id="Dot"><circle id="Dot17" serif:id="Dot" cx="104.167" cy="604.167" r="10.417"/></g><g id="Dot18" serif:id="Dot"><circle id="Dot19" serif:id="Dot" cx="104.167" cy="687.5" r="10.417"/></g><g id="Dot20" serif:id="Dot"><circle id="Dot21" serif:id="Dot" cx="187.5" cy="687.5" r="10.417"/></g><g id="Dot22" serif:id="Dot"><circle id="Dot23" serif:id="Dot" cx="270.833" cy="687.5" r="10.417"/></g><g id="Dot24" serif:id="Dot"><circle id="Dot25" serif:id="Dot" cx="354.167" cy="687.5" r="10.417"/></g><g id="Dot26" serif:id="Dot"><circle id="Dot27" serif:id="Dot" cx="437.5" cy="687.5" r="10.417"/></g><g id="Dot28" serif:id="Dot"><circle id="Dot29" serif:id="Dot" cx="104.167" cy="770.833" r="10.417"/></g><g id="Dot30" serif:id="Dot"><circle id="Dot31" serif:id="Dot" cx="104.167" cy="854.167" r="10.417"/></g><g id="Dot32" serif:id="Dot"><circle id="Dot33" serif:id="Dot" cx="104.167" cy="937.5" r="10.417"/></g><g id="Dot34" serif:id="Dot"><circle id="Dot35" serif:id="Dot" cx="104.167" cy="1020.83" r="10.417"/></g><g id="Dot36" serif:id="Dot"><circle id="Dot37" serif:id="Dot" cx="104.167" cy="1104.17" r="10.417"/></g><g id="Dot38" serif:id="Dot"><circle id="Dot39" serif:id="Dot" cx="187.5" cy="1020.83" r="10.417"/></g><g id="Dot40" serif:id="Dot"><circle id="Dot41" serif:id="Dot" cx="270.833" cy="937.5" r="10.417"/></g><g id="Dot42" serif:id="Dot"><circle id="Dot43" serif:id="Dot" cx="187.5" cy="1104.17" r="10.417"/></g><g id="Dot44" serif:id="Dot"><circle id="Dot45" serif:id="Dot" cx="270.833" cy="1104.17" r="10.417"/></g><g id="Dot46" serif:id="Dot"><circle id="Dot47" serif:id="Dot" cx="354.167" cy="1104.17" r="10.417"/></g><g id="Dot48" serif:id="Dot"><circle id="Dot49" serif:id="Dot" cx="437.5" cy="1104.17" r="10.417"/></g><g id="Dot50" serif:id="Dot"><circle id="Dot51" serif:id="Dot" cx="104.167" cy="270.833" r="10.417"/></g><g id="Dot52" serif:id="Dot"><circle id="Dot53" serif:id="Dot" cx="187.5" cy="270.833" r="10.417"/></g><g id="Dot54" serif:id="Dot"><circle id="Dot55" serif:id="Dot" cx="270.833" cy="270.833" r="10.417"/></g><g id="Dot56" serif:id="Dot"><circle id="Dot57" serif:id="Dot" cx="354.167" cy="270.833" r="10.417"/></g><g id="Dot58" serif:id="Dot"><circle id="Dot59" serif:id="Dot" cx="437.5" cy="270.833" r="10.417"/></g><g id="Dot60" serif:id="Dot"><circle id="Dot61" serif:id="Dot" cx="520.833" cy="270.833" r="10.417"/></g><g id="Dot62" serif:id="Dot"><circle id="Dot63" serif:id="Dot" cx="520.833" cy="437.5" r="10.417"/></g><g id="Dot64" serif:id="Dot"><circle id="Dot65" serif:id="Dot" cx="520.833" cy="354.167" r="10.417"/></g><g id="Dot66" serif:id="Dot"><circle id="Dot67" serif:id="Dot" cx="520.833" cy="520.833" r="10.417"/></g><g id="Dot68" serif:id="Dot"><circle id="Dot69" serif:id="Dot" cx="520.833" cy="604.167" r="10.417"/></g><g id="Dot70" serif:id="Dot"><circle id="Dot71" serif:id="Dot" cx="520.833" cy="687.5" r="10.417"/></g><g id="Dot72" serif:id="Dot"><circle id="Dot73" serif:id="Dot" cx="520.833" cy="770.833" r="10.417"/></g><g id="Dot74" serif:id="Dot"><circle id="Dot75" serif:id="Dot" cx="520.833" cy="854.167" r="10.417"/></g><g id="Dot76" serif:id="Dot"><circle id="Dot77" serif:id="Dot" cx="520.833" cy="937.5" r="10.417"/></g><g id="Dot78" serif:id="Dot"><circle id="Dot79" serif:id="Dot" cx="520.833" cy="1020.83" r="10.417"/></g><g id="Dot80" serif:id="Dot"><circle id="Dot81" serif:id="Dot" cx="520.833" cy="1104.17" r="10.417"/></g><g id="Dot82" serif:id="Dot"><circle id="Dot83" serif:id="Dot" cx="437.5" cy="354.167" r="10.417"/></g></g></g>
<g id="Numbers">
    <path id="_1" class="hide" serif:id="1" d="M104.167,687.5l416.666,-416.741l0,833.408" style="fill:none;stroke:#000;stroke-width:41.67px;"/>
    <path id="_2" class="hide" serif:id="2" d="M499.945,291.95c-0.032,75.846 0.372,332.766 0.157,385.828l-0.008,0.998l-410.659,410.659c-5.954,5.955 -7.739,14.908 -4.521,22.691c3.217,7.782 10.802,12.862 19.223,12.874c0,-0 374.294,0.524 416.953,-0.002c11.498,-0.141 20.717,-9.591 20.575,-21.088c-0.142,-11.498 -9.591,-20.717 -21.088,-20.575c-32.86,0.405 -262.762,0.184 -366.181,0.062c0.003,-0 381.169,-381.166 381.169,-381.166c0.567,-0.567 5.538,-4.337 6.079,-13.634c0.042,-0.716 0.099,-4.431 0.124,-10.65c0.225,-55.62 -0.229,-335.156 -0.155,-395.568l0.033,-9.766c0.363,-3.694 -0.328,-7.395 -2.179,-11.096c-0.566,-1.133 -12.209,-7.12 -22.705,-7.426l2.455,-4.004c-0,-0 -4.598,0.101 -9.978,0.144c-66.492,0.537 -400.89,-0.231 -405.072,-0.231c-11.499,-0 -20.834,9.335 -20.834,20.833c0,11.499 9.335,20.834 20.834,20.834c4.012,-0 311.652,0.705 395.778,0.283Zm26.539,-1.009c-1.995,0.576 -3.997,0.803 -5.99,0.744c1.45,-0.046 2.355,-0.097 2.676,-0.134c1.184,-0.14 2.287,-0.346 3.314,-0.61Zm13.877,-12.846l0.35,-1.009c-0.206,0.687 -0.437,1.331 -0.688,1.937l0.338,-0.928Z"/>
    <path id="_3" class="hide" serif:id="3" d="M471.31,707.902c-101.179,100.448 -369.732,367.322 -382.94,382.682c-7.497,8.718 -6.505,21.883 2.214,29.379c8.718,7.497 21.883,6.505 29.379,-2.213c15.971,-18.575 412.237,-412.791 412.285,-412.822c10.555,-6.913 10.51,-15.979 8.761,-22.699c-0.922,-3.541 -3.29,-11.228 -13.842,-14.618c-0.77,-0.247 -6.735,-1.224 -17.028,-1.323c-50.337,-0.486 -261.89,1.516 -357.823,1.292c98.658,-99.8 383.187,-381.954 383.187,-381.954c5.994,-5.944 7.809,-14.919 4.594,-22.725c-3.214,-7.806 -10.821,-12.901 -19.264,-12.901l-416.666,0c-11.499,0 -20.834,9.335 -20.834,20.833c0,11.499 9.335,20.834 20.834,20.834l366.092,-0c-89.019,88.358 -316.553,314.404 -369.789,369.222c-8.216,8.461 -12.857,13.813 -13.591,14.918c-9.094,13.71 -0.024,23.771 2.344,26.209c1.476,1.519 4.322,4.242 9.752,5.689c1.225,0.327 6.399,1.024 14.919,1.216c48.843,1.103 260.157,-0.801 357.416,-1.019Zm31.9,-31.666l6.208,-6.164c-2.879,1.886 -4.849,4.017 -6.208,6.164Z"/>
    <path id="_4" class="hide" serif:id="4" d="M104.167,270.833l-0,416.667l416.666,0l0,-416.667l0,833.334" style="fill:none;stroke:#000;stroke-width:41.67px;"/>
    <path id="_5" class="hide" serif:id="5" d="M520.833,270.833l-416.666,0l-0,416.667l416.666,0l0,416.667l-416.666,-0" style="fill:none;stroke:#000;stroke-width:41.67px;"/>
    <path id="_6" class="hide" serif:id="6" d="M520.833,270.833l-417.595,417.01l0.929,416.324l416.666,-0l0,-416.667l-416.666,-0" style="fill:none;stroke:#000;stroke-width:41.67px;"/>
    <path id="_7" class="hide" serif:id="7" d="M104.167,270.833l416.666,0l-416.666,416.667l-0,416.667" style="fill:none;stroke:#000;stroke-width:41.67px;"/>
    <path id="_8" class="hide" serif:id="8" d="M104.167,687.5l-0,-416.667l416.666,0l0,416.667l-416.666,0l-0,416.667l416.666,-0l0,-416.667" style="fill:none;stroke:#000;stroke-width:41.67px;"/>
    <path id="_9" class="hide" serif:id="9" d="M104.167,1104.17l416.666,-416.667l0,-416.667l-416.666,0l-0,416.667l416.666,0" style="fill:none;stroke:#000;stroke-width:41.67px;"/>
    <rect id="_0" class="hide" serif:id="0" x="104.167" y="270.833" width="416.667" height="833.333" style="fill:none;stroke:#000;stroke-width:41.67px;"/>
</g>
</svg>
